{
	"patcher" : 	{
		"fileversion" : 1,
		"appversion" : 		{
			"major" : 8,
			"minor" : 0,
			"revision" : 6,
			"architecture" : "x64",
			"modernui" : 1
		}
,
		"classnamespace" : "box",
		"rect" : [ 42.0, 84.0, 1316.0, 914.0 ],
		"bglocked" : 0,
		"openinpresentation" : 0,
		"default_fontsize" : 12.0,
		"default_fontface" : 0,
		"default_fontname" : "Arial",
		"gridonopen" : 1,
		"gridsize" : [ 15.0, 15.0 ],
		"gridsnaponopen" : 1,
		"objectsnaponopen" : 1,
		"statusbarvisible" : 2,
		"toolbarvisible" : 1,
		"lefttoolbarpinned" : 0,
		"toptoolbarpinned" : 0,
		"righttoolbarpinned" : 0,
		"bottomtoolbarpinned" : 0,
		"toolbars_unpinned_last_save" : 0,
		"tallnewobj" : 0,
		"boxanimatetime" : 200,
		"enablehscroll" : 1,
		"enablevscroll" : 1,
		"devicewidth" : 0.0,
		"description" : "",
		"digest" : "",
		"tags" : "",
		"style" : "",
		"subpatcher_template" : "",
		"boxes" : [ 			{
				"box" : 				{
					"id" : "obj-42",
					"linecount" : 7,
					"maxclass" : "message",
					"numinlets" : 2,
					"numoutlets" : 1,
					"outlettype" : [ "" ],
					"patching_rect" : [ 793.0, 127.0, 567.0, 102.0 ],
					"text" : "0. 0. 0.5 0.424901 2. 1.794559 4.5 4.155883 8. 7.452385 12.5 11.7 18. 16.904703 24.5 23.121927 32. 30.407644 40.5 38.69352 50. 47.959053 50. 57.803734 50. 67.754761 50. 77.714943 90. 87.61927 90. 97.537407 90. 107.555351 90. 117.583511 130. 127.59317 130. 137.645569 130. 147.695251 130. 157.745438 130. 167.795105 130. 177.335922 130. 185.873123 130. 193.354111 202. 199.789398 207.5 205.221771 212. 209.678925 215.5 213.109253 218. 215.494797 219.5 216.832108 220. 217.119064 220. 216.733566 220. 216.152893 220. 215.507736 220. 214.804764 220. 214.061691 220. 213.334885"
				}

			}
, 			{
				"box" : 				{
					"id" : "obj-40",
					"linecount" : 38,
					"maxclass" : "message",
					"numinlets" : 2,
					"numoutlets" : 1,
					"outlettype" : [ "" ],
					"patching_rect" : [ 119.0, 796.0, 163.0, 518.0 ],
					"text" : "0.005 <undefined> 0.309967 <undefined> 1.302038 <undefined> 3.175216 <undefined> 5.988547 <undefined> 9.765765 <undefined> 14.516361 <undefined> 20.260745 <undefined> 27.023939 <undefined> 34.79437 <undefined> 43.561279 <undefined> 49.952114 <undefined> 55.468232 <undefined> 60.653067 <undefined> 78.054783 <undefined> 87.76652 <undefined> 94.571788 <undefined> 100.27 <undefined> 117.9 <undefined> 127.740981 <undefined> 134.605265 <undefined> 140.332866 <undefined> 145.626134 <undefined> 150.596256 <undefined> 155.132814 <undefined> 159.177378 <undefined> 184.9601 <undefined> 198.186513 <undefined> 206.006466 <undefined> 211.135011 <undefined> 214.603657 <undefined> 216.80534 <undefined> 217.88949 <undefined> 218.184473 <undefined> 218.117709 <undefined> 217.892843 <undefined> 217.589721 <undefined> 217.244317 <undefined> 216.887789"
				}

			}
, 			{
				"box" : 				{
					"id" : "obj-36",
					"maxclass" : "message",
					"numinlets" : 2,
					"numoutlets" : 1,
					"outlettype" : [ "" ],
					"patching_rect" : [ 940.0, 731.0, 43.0, 22.0 ],
					"text" : "zlclear"
				}

			}
, 			{
				"box" : 				{
					"id" : "obj-34",
					"linecount" : 6,
					"maxclass" : "message",
					"numinlets" : 2,
					"numoutlets" : 1,
					"outlettype" : [ "" ],
					"patching_rect" : [ 775.0, 79.0, 581.0, 89.0 ],
					"text" : "0. 0. 0.5 0.424901 2. 1.794559 4.5 4.155883 8. 7.452385 12.5 11.7 18. 16.904703 24.5 23.121927 32. 30.407644 40.5 38.69352 50. 47.959053 50. 57.803734 70. 67.754761 70. 77.714943 90. 87.61927 90. 97.537407 110. 107.555351 110. 117.583511 130. 127.59317 130. 137.645569 150. 147.695251 150. 157.745438 170. 167.795105 170. 177.335922 188. 185.873123 188. 193.354111 202. 199.789398 207.5 205.221771 212. 209.678925 215.5 213.109253 218. 215.494797 219.5 216.832108 220. 217.119064 220. 216.733566 220. 216.152893 220. 215.507736 220. 214.804764 220. 214.061691 220. 213.334885"
				}

			}
, 			{
				"box" : 				{
					"id" : "obj-32",
					"linecount" : 6,
					"maxclass" : "message",
					"numinlets" : 2,
					"numoutlets" : 1,
					"outlettype" : [ "" ],
					"patching_rect" : [ 145.0, 75.0, 615.0, 89.0 ],
					"text" : "0. 0. 0.5 0.424901 2. 1.794559 4.5 4.155883 8. 7.452385 12.5 11.7 18. 16.904703 24.5 23.121927 32. 30.407644 40.5 38.69352 50. 47.959053 60. 57.803734 70. 67.754761 80. 77.714943 90. 87.61927 100. 97.537407 110. 107.555351 120. 117.583511 130. 127.59317 140. 137.645569 150. 147.695251 160. 157.745438 170. 167.795105 179.5 177.335922 188. 185.873123 195.5 193.354111 202. 199.789398 207.5 205.221771 212. 209.678925 215.5 213.109253 218. 215.494797 219.5 216.832108 220. 217.119064 220. 216.733566 220. 216.152893 220. 215.507736 220. 214.804764 220. 214.061691 220. 213.334885"
				}

			}
, 			{
				"box" : 				{
					"id" : "obj-30",
					"maxclass" : "newobj",
					"numinlets" : 2,
					"numoutlets" : 2,
					"outlettype" : [ "", "" ],
					"patching_rect" : [ 720.0, 745.0, 74.0, 22.0 ],
					"text" : "zl stream 80"
				}

			}
, 			{
				"box" : 				{
					"id" : "obj-23",
					"maxclass" : "message",
					"numinlets" : 2,
					"numoutlets" : 1,
					"outlettype" : [ "" ],
					"patching_rect" : [ 720.0, 682.0, 39.0, 22.0 ],
					"text" : "dump"
				}

			}
, 			{
				"box" : 				{
					"id" : "obj-16",
					"maxclass" : "newobj",
					"numinlets" : 1,
					"numoutlets" : 3,
					"outlettype" : [ "", "", "" ],
					"patching_rect" : [ 720.0, 713.0, 132.0, 22.0 ],
					"text" : "mubu.track vicon-acc 1"
				}

			}
, 			{
				"box" : 				{
					"id" : "obj-11",
					"maxclass" : "message",
					"numinlets" : 2,
					"numoutlets" : 1,
					"outlettype" : [ "" ],
					"patching_rect" : [ 720.0, 236.5, 33.0, 22.0 ],
					"text" : "read"
				}

			}
, 			{
				"box" : 				{
					"alignviewbounds" : 0,
					"autobounds" : 0,
					"autorefreshrate" : 0,
					"autoupdate" : 120.0,
					"bgcolor" : [ 1.0, 1.0, 1.0, 1.0 ],
					"bufferchooser_bgcolor" : [ 1.0, 1.0, 1.0, 1.0 ],
					"bufferchooser_fgcolor" : [ 0.0, 0.0, 0.0, 1.0 ],
					"bufferchooser_position" : 1,
					"bufferchooser_shape" : "buttons",
					"bufferchooser_size" : 15,
					"bufferchooser_visible" : 0,
					"content" : [ 2, [ [  ] ], [ 0, 1, 2, 0, [  ], 0, "none", [ [ 128, 39, 1000.0, 0.0, 1, 2, 0, [ 0.0, 0.0, 0.5, 0.4249007999897, 2.0, 1.794559478759766, 4.5, 4.155883312225342, 8.0, 7.452385425567627, 12.5, 11.700789451599121, 18.0, 16.904703140258789, 24.5, 23.121927261352539, 32.0, 30.407644271850586, 40.5, 38.693519592285156, 50.0, 47.959053039550781, 50.0, 57.803733825683594, 50.0, 67.7547607421875, 50.0, 77.714942932128906, 90.0, 87.619270324707031, 90.0, 97.537406921386719, 90.0, 107.555351257324219, 90.0, 117.583511352539062, 130.0, 127.593170166015625, 130.0, 137.64556884765625, 130.0, 147.69525146484375, 130.0, 157.745437622070312, 130.0, 167.79510498046875, 130.0, 177.335922241210938, 130.0, 185.873123168945312, 130.0, 193.354110717773438, 202.0, 199.789398193359375, 207.5, 205.221771240234375, 212.0, 209.678924560546875, 215.5, 213.1092529296875, 218.0, 215.494796752929688, 219.5, 216.832107543945312, 220.0, 217.119064331054688, 220.0, 216.733566284179688, 220.0, 216.15289306640625, 220.0, 215.507736206054688, 220.0, 214.804763793945312, 220.0, 214.061691284179688, 220.0, 213.334884643554688 ], 0, 0, 0, 0, [ "FileName", "kalman-test.csv" ] ] ] ] ],
					"cursor_color" : [ 1.0, 0.0, 0.0, 1.0 ],
					"cursor_followmouse" : 0,
					"cursor_position" : -1.0,
					"cursor_shape" : "bar",
					"cursor_size" : 3,
					"cursor_visible" : 1,
					"domain_bounds" : [ 0.0, 0.0 ],
					"domainruler_bgcolor" : [ 1.0, 1.0, 1.0, 1.0 ],
					"domainruler_fgcolor" : [ 0.0, 0.0, 0.0, 1.0 ],
					"domainruler_grid" : 0,
					"domainruler_position" : 0,
					"domainruler_size" : 15,
					"domainruler_unit" : 0,
					"domainruler_visible" : 1,
					"domainscrollbar_color" : [ 1.0, 1.0, 1.0, 1.0 ],
					"domainscrollbar_size" : 10,
					"domainscrollbar_visible" : 1,
					"embed" : 1,
					"externalfiles" : 1,
					"id" : "obj-8",
					"layout" : 0,
					"maxclass" : "imubu",
					"name" : "vicon-acc",
					"numinlets" : 1,
					"numoutlets" : 1,
					"opacity" : 0.0,
					"opacityprogressive" : 0,
					"orientation" : 0,
					"outlettype" : [ "" ],
					"outputkeys" : 0,
					"outputmouse" : 0,
					"outputselection" : 0,
					"outputtimeselection" : 0,
					"outputvalues" : 0,
					"patching_rect" : [ 720.0, 272.0, 412.0, 333.0 ],
					"rangeruler_grid" : 0,
					"rangeruler_size" : 30,
					"rangeruler_visible" : 1,
					"region_bounds" : [ 0.0, 0.0 ],
					"region_color" : [ 0.800000011920929, 0.699999988079071, 0.699999988079071, 1.0 ],
					"region_visible" : 1,
					"split_color" : [ 0.0, 0.0, 0.0, 1.0 ],
					"split_size" : 2,
					"split_visible" : 1,
					"tabs_position" : 0,
					"tabs_size" : 20,
					"tabs_visible" : 0,
					"toolbar_bgcolor" : [ 1.0, 1.0, 1.0, 1.0 ],
					"toolbar_position" : 1,
					"toolbar_size" : 30,
					"toolbar_visible" : 1,
					"useplaceholders" : 1,
					"viewconfig" : [ "interface matrix, , visible 1, autobounds 0, hidenotforemost 0, allbuffersvisible 0, domainalign time, header bordercolor 200 200 200 1" ],
					"windresize" : 0
				}

			}
, 			{
				"box" : 				{
					"id" : "obj-22",
					"maxclass" : "newobj",
					"numinlets" : 1,
					"numoutlets" : 2,
					"outlettype" : [ "bang", "float" ],
					"patching_rect" : [ 207.0, 317.0, 34.0, 22.0 ],
					"text" : "t b f"
				}

			}
, 			{
				"box" : 				{
					"bubble" : 1,
					"id" : "obj-19",
					"linecount" : 6,
					"maxclass" : "comment",
					"numinlets" : 1,
					"numoutlets" : 0,
					"patching_rect" : [ 315.0, 236.5, 150.0, 91.0 ],
					"text" : "Smoothing Factor\n\n1.0 is the original, and the higher it is, the more a path will be\n   \"smoothed\"."
				}

			}
, 			{
				"box" : 				{
					"id" : "obj-17",
					"maxclass" : "newobj",
					"numinlets" : 1,
					"numoutlets" : 1,
					"outlettype" : [ "" ],
					"patching_rect" : [ 207.0, 244.0, 95.0, 22.0 ],
					"text" : "loadmess 1000."
				}

			}
, 			{
				"box" : 				{
					"id" : "obj-15",
					"maxclass" : "message",
					"numinlets" : 2,
					"numoutlets" : 1,
					"outlettype" : [ "" ],
					"patching_rect" : [ 222.0, 364.0, 79.0, 22.0 ],
					"text" : "s_smooth $1"
				}

			}
, 			{
				"box" : 				{
					"format" : 6,
					"id" : "obj-12",
					"maxclass" : "flonum",
					"numinlets" : 1,
					"numoutlets" : 2,
					"outlettype" : [ "", "bang" ],
					"parameter_enable" : 0,
					"patching_rect" : [ 207.0, 272.0, 95.0, 22.0 ]
				}

			}
, 			{
				"box" : 				{
					"id" : "obj-10",
					"maxclass" : "newobj",
					"numinlets" : 1,
					"numoutlets" : 1,
					"outlettype" : [ "bang" ],
					"patching_rect" : [ 82.0, 299.0, 60.0, 22.0 ],
					"text" : "loadbang"
				}

			}
, 			{
				"box" : 				{
					"id" : "obj-7",
					"maxclass" : "multislider",
					"numinlets" : 1,
					"numoutlets" : 2,
					"outlettype" : [ "", "" ],
					"parameter_enable" : 0,
					"patching_rect" : [ 145.0, 488.0, 479.0, 183.0 ],
					"setminmax" : [ 0.0, 240.0 ],
					"setstyle" : 1,
					"signed" : 1,
					"size" : 77
				}

			}
, 			{
				"box" : 				{
					"id" : "obj-5",
					"maxclass" : "message",
					"numinlets" : 2,
					"numoutlets" : 1,
					"outlettype" : [ "" ],
					"patching_rect" : [ 82.0, 337.0, 29.5, 22.0 ],
					"text" : "init"
				}

			}
, 			{
				"box" : 				{
					"id" : "obj-2",
					"maxclass" : "newobj",
					"numinlets" : 1,
					"numoutlets" : 0,
					"patching_rect" : [ 199.0, 460.0, 34.0, 22.0 ],
					"text" : "print"
				}

			}
, 			{
				"box" : 				{
					"id" : "obj-1",
					"maxclass" : "newobj",
					"numinlets" : 1,
					"numoutlets" : 2,
					"outlettype" : [ "", "" ],
					"patching_rect" : [ 145.0, 414.0, 88.0, 22.0 ],
					"saved_object_attributes" : 					{
						"filename" : "kalman-va.js",
						"parameter_enable" : 0
					}
,
					"text" : "js kalman-va.js"
				}

			}
 ],
		"lines" : [ 			{
				"patchline" : 				{
					"destination" : [ "obj-2", 0 ],
					"source" : [ "obj-1", 1 ]
				}

			}
, 			{
				"patchline" : 				{
					"destination" : [ "obj-40", 1 ],
					"order" : 0,
					"source" : [ "obj-1", 0 ]
				}

			}
, 			{
				"patchline" : 				{
					"destination" : [ "obj-7", 0 ],
					"order" : 1,
					"source" : [ "obj-1", 0 ]
				}

			}
, 			{
				"patchline" : 				{
					"destination" : [ "obj-5", 0 ],
					"source" : [ "obj-10", 0 ]
				}

			}
, 			{
				"patchline" : 				{
					"destination" : [ "obj-8", 0 ],
					"source" : [ "obj-11", 0 ]
				}

			}
, 			{
				"patchline" : 				{
					"destination" : [ "obj-22", 0 ],
					"source" : [ "obj-12", 0 ]
				}

			}
, 			{
				"patchline" : 				{
					"destination" : [ "obj-1", 0 ],
					"midpoints" : [ 231.5, 399.0, 154.5, 399.0 ],
					"source" : [ "obj-15", 0 ]
				}

			}
, 			{
				"patchline" : 				{
					"destination" : [ "obj-30", 0 ],
					"source" : [ "obj-16", 0 ]
				}

			}
, 			{
				"patchline" : 				{
					"destination" : [ "obj-12", 0 ],
					"source" : [ "obj-17", 0 ]
				}

			}
, 			{
				"patchline" : 				{
					"destination" : [ "obj-15", 0 ],
					"source" : [ "obj-22", 1 ]
				}

			}
, 			{
				"patchline" : 				{
					"destination" : [ "obj-16", 0 ],
					"source" : [ "obj-23", 0 ]
				}

			}
, 			{
				"patchline" : 				{
					"destination" : [ "obj-1", 0 ],
					"source" : [ "obj-32", 0 ]
				}

			}
, 			{
				"patchline" : 				{
					"destination" : [ "obj-1", 0 ],
					"source" : [ "obj-34", 0 ]
				}

			}
, 			{
				"patchline" : 				{
					"destination" : [ "obj-30", 0 ],
					"source" : [ "obj-36", 0 ]
				}

			}
, 			{
				"patchline" : 				{
					"destination" : [ "obj-1", 0 ],
					"source" : [ "obj-42", 0 ]
				}

			}
, 			{
				"patchline" : 				{
					"destination" : [ "obj-1", 0 ],
					"midpoints" : [ 91.5, 399.0, 154.5, 399.0 ],
					"source" : [ "obj-5", 0 ]
				}

			}
 ],
		"dependency_cache" : [ 			{
				"name" : "kalman-va.js",
				"bootpath" : "~/Documents/viconOSC/vicon_arduino/Kalman-Filter",
				"patcherrelativepath" : ".",
				"type" : "TEXT",
				"implicit" : 1
			}
, 			{
				"name" : "mubu.mxo",
				"type" : "iLaX"
			}
, 			{
				"name" : "mubu.mxo",
				"type" : "iLaX"
			}
 ],
		"autosave" : 0
	}

}
